<?xml version="1.0" standalone="no"?>
<!DOCTYPE svg PUBLIC "-//W3C//DTD SVG 20010904//EN"
 "http://www.w3.org/TR/2001/REC-SVG-20010904/DTD/svg10.dtd">
<svg version="1.0" xmlns="http://www.w3.org/2000/svg"
 width="512.000000pt" height="512.000000pt" viewBox="0 0 512.000000 512.000000"
 preserveAspectRatio="xMidYMid meet">
<metadata>
Created by potrace 1.14, written by Peter Selinger 2001-2017
</metadata>
<g transform="translate(0.000000,512.000000) scale(0.100000,-0.100000)"
fill="#000000" stroke="none">
<path d="M581 5099 c-70 -32 -98 -82 -175 -309 -61 -181 -122 -428 -141 -570
-3 -25 -8 -56 -10 -70 -10 -65 -23 -181 -31 -283 -11 -139 -5 -513 11 -617 2
-14 6 -50 10 -80 3 -30 11 -82 17 -115 5 -33 12 -71 14 -85 3 -14 7 -33 10
-43 4 -12 -17 -44 -62 -100 -37 -45 -70 -84 -73 -87 -17 -15 -130 -159 -140
-178 -9 -17 -11 -64 -7 -175 4 -84 8 -165 10 -182 2 -16 7 -57 11 -90 9 -79
16 -129 20 -135 2 -3 6 -26 10 -50 3 -25 8 -53 11 -62 3 -9 6 -25 8 -35 32
-159 115 -387 207 -562 277 -530 759 -911 1414 -1121 103 -33 239 -68 288 -76
16 -2 32 -6 36 -8 4 -3 36 -10 72 -16 35 -5 78 -12 94 -15 73 -12 95 -15 170
-22 104 -10 331 -9 420 0 95 11 125 15 220 32 339 60 674 175 950 327 60 33
112 63 115 67 3 3 17 12 32 20 117 60 411 325 531 477 138 176 268 412 341
621 36 100 90 296 100 363 3 19 8 46 10 60 14 73 17 90 22 145 3 33 7 71 10
85 2 14 7 93 10 177 4 108 2 158 -7 174 -6 12 -72 96 -146 186 -84 102 -133
169 -129 178 7 20 34 176 42 250 3 33 8 68 10 78 20 106 19 638 0 745 -2 9 -7
44 -10 77 -7 62 -13 102 -21 145 -3 14 -7 41 -10 60 -40 250 -177 689 -239
766 -53 66 -138 88 -228 58 -210 -69 -535 -252 -765 -431 -129 -100 -338 -311
-426 -428 -49 -66 -28 -62 -177 -31 -8 2 -35 7 -60 11 -69 10 -93 14 -120 20
-31 6 -200 19 -260 19 -48 0 -212 -11 -270 -19 -89 -12 -152 -23 -228 -40 -35
-8 -71 -15 -81 -15 -11 0 -42 31 -77 78 -126 168 -379 398 -590 537 -159 105
-460 265 -498 265 -8 0 -17 4 -20 9 -9 13 -121 42 -156 39 -18 -1 -49 -10 -69
-19z"/>
</g>
</svg>
